<svg xmlns="http://www.w3.org/2000/svg" width="256" height="257">
  <g fill="none" fill-rule="evenodd">
    <path fill="#F2F2F2" d="M0 0h256v256H0z"/>
    <path fill="#CCC" d="M158 153v14.7c56 32.2 84.2 16 84.2 88.8H13c0-75.5 28.3-56.6 84.2-88.8v-13c-9.8-7-12-19.5-15.4-32.7h-.3c-1.4 0-2.8-2-2.8-5 0-.6.4-.6.4-1.3-1-1.4-2-3.5-2.6-6.3-1-4.2-4.5-12.3-1.3-16 2.7-2.5 4.5.3 4.5.3-4-21.4-9.4-49.3 20.3-58 0-18.2 69.5-10.2 77.5 19.5 4 11.5-1 38-1 38 1-1.7 2.4-2.3 3.8-1 4 2.5-.2 13.7-1.3 17.2-.7 3-1.7 5.2-2.8 7l.3.7c0 2.7-1.4 5-2.8 5-3.2 12-6.3 25-15.4 31"/>
  </g>
</svg>
